<?xml version="1.0" standalone="no"?>
<!DOCTYPE svg PUBLIC "-//W3C//DTD SVG 20010904//EN"
 "http://www.w3.org/TR/2001/REC-SVG-20010904/DTD/svg10.dtd">
<svg version="1.0" xmlns="http://www.w3.org/2000/svg"
 width="286.000000pt" height="195.000000pt" viewBox="0 0 286.000000 195.000000"
 preserveAspectRatio="xMidYMid meet">

<g transform="translate(0.000000,195.000000) scale(0.100000,-0.100000)"
fill="#FA0404" stroke="none">
<path d="M1402 1760 c-206 -57 -348 -174 -433 -355 -54 -115 -74 -221 -73
-390 0 -171 21 -300 74 -470 42 -137 137 -358 150 -350 5 3 14 38 20 78 54
334 142 459 413 586 246 115 388 268 420 455 31 180 -74 370 -239 435 -85 34
-232 38 -332 11z m219 -194 c93 -16 158 -107 146 -205 -15 -127 -124 -239
-308 -316 -104 -44 -196 -103 -269 -172 l-69 -65 -8 29 c-4 15 -8 98 -8 183 0
133 3 165 23 226 39 126 127 229 237 280 66 30 170 55 205 48 8 -1 31 -5 51
-8z"/>
</g>
</svg>
